<svg width="22" height="24" viewBox="0 0 22 24" fill="none" xmlns="http://www.w3.org/2000/svg">
<path d="M19.4656 19.8589C18.6164 19.6865 17.805 19.4954 17.1292 19.3615L15.9896 19.1123L16.1251 17.9629C16.1251 17.9057 16.1445 17.8481 16.1445 17.7905C16.1481 17.5478 16.102 17.3069 16.009 17.0823L15.7388 16.4692L16.1058 15.8945C16.3183 15.5498 16.4146 15.1671 16.4146 14.7264C16.4146 14.2669 16.2796 13.8646 16.0283 13.5199L15.5839 12.9264L15.8743 12.2369C15.9891 11.9705 16.048 11.6836 16.0477 11.3939C16.0477 10.992 16.0477 9.78545 14.1359 9.0576C13.8657 8.9616 13.325 8.80887 12.3204 8.75127L10.2542 8.61687L11.2394 6.83607C12.0314 5.41876 12.4753 4.13542 12.4753 3.2352C12.4753 2.41178 12.2047 1.68393 11.5865 1.4352C9.44328 0.515782 7.9178 1.95229 6.83628 3.71433C5.96728 5.1504 4.88576 6.98924 4.22928 8.34851C2.81952 11.2983 0.73392 13.4243 0.73392 16.3732C0.73392 19.0547 2.54892 21.1615 5.87048 22.2724C9.94532 23.6321 16.0283 23.9961 18.6745 23.9961C20.5665 23.9961 21.6093 23.2682 21.6093 21.9277C21.6093 20.5296 20.277 20.0317 19.466 19.8593L19.4656 19.8589Z" fill="#FFD338"/>
<path d="M18.6164 18.672C16.4146 18.1929 14.5222 17.7905 14.5222 17.7905C14.8504 17.561 15.198 17.0823 15.198 16.4884C15.198 15.799 14.8311 15.3967 14.5416 15.1863C14.9279 14.8988 15.4493 14.3817 15.4493 13.4435C15.4493 12.4285 14.7541 11.9114 14.3871 11.6623C14.6766 11.3943 15.0823 10.858 15.0823 10.111C15.0823 8.78967 14.0589 8.19578 13.2282 7.87026C12.5523 7.62153 11.2776 7.52553 10.1578 7.52553C8.32304 7.52553 6.66248 7.65949 5.87048 7.65949C4.92448 7.65949 5.0402 7.1808 5.3878 6.74008C5.60032 6.49135 8.28476 2.98648 8.7868 2.35462C9.1344 1.89469 9.53964 1.4544 9.84896 1.62677C10.1772 1.79913 10.0421 2.60335 9.69452 3.48437C9.17268 4.86328 8.4392 5.74473 8.2654 6.05062L9.50136 6.79768C9.98404 6.20422 11.5482 3.61833 11.5482 1.95229C11.5482 1.20524 11.2587 0.573384 10.6986 0.228657C10.1385 -0.0968703 9.42392 -0.0776703 8.7868 0.305457C8.36176 0.554184 7.93716 0.918112 7.5702 1.3776C6.6044 2.60378 4.55752 5.1696 3.80424 6.12742C2.72272 7.52553 3.2252 9.24917 5.52288 9.24917C6.33424 9.24917 8.97996 9.0576 10.0034 9.0576C11.1813 9.0576 11.7608 9.1152 12.166 9.17237C12.9386 9.28757 13.383 9.63229 13.383 10.0918C13.383 10.4173 13.2282 10.6473 12.958 10.8388C12.6874 11.0304 12.4366 11.3175 12.4366 11.7199C12.4366 12.1985 12.881 12.3901 13.1705 12.5817C13.5568 12.8304 13.7883 13.0028 13.7883 13.4051C13.7883 13.769 13.5181 13.9798 13.2088 14.2093C12.958 14.4013 12.6298 14.6116 12.6298 15.0519C12.6298 15.4543 12.9193 15.6458 13.1124 15.799C13.3056 15.9521 13.5181 16.1245 13.5181 16.45C13.5181 16.7756 13.3637 16.9292 12.9769 17.1587C12.6685 17.3311 12.2245 17.657 12.2245 18.1165C12.2245 18.6336 12.591 18.8631 13.035 18.9783C14.0972 19.2271 17.2643 19.8977 18.3458 20.1465C18.6934 20.2233 19.041 20.338 19.041 20.6252C19.041 20.9127 18.5777 21.0467 17.9212 21.0467C15.642 21.0467 9.3082 20.5872 5.58096 19.3039C3.05096 18.4612 1.66056 16.91 1.66056 15.0524C1.66056 13.4435 2.74208 12.007 3.9204 11.1836L2.85824 10.1105C1.15852 11.2791 0 13.1367 0 15.0903C0 17.3507 1.35168 19.6486 5.07892 20.8935C9.0376 22.2148 15.0436 22.6172 17.8438 22.6172C19.7556 22.6172 20.6826 21.8317 20.6826 20.6448C20.6633 19.5146 19.7366 18.9015 18.616 18.672H18.6164Z" fill="#222222"/>
</svg>
